<?xml version="1.0" encoding="UTF-8"?>
<svg width="106px" height="23px" viewBox="0 0 106 23" version="1.1" xmlns="http://www.w3.org/2000/svg" xmlns:xlink="http://www.w3.org/1999/xlink">
    <g id="Page-1" stroke="none" stroke-width="1" fill="none" fill-rule="evenodd">
        <g id="Homepage-Desktop-1440-px" transform="translate(-30.000000, -30.000000)" fill="#23282D" fill-rule="nonzero">
            <g id="Navigation">
                <g id="wordmark-charcoal" transform="translate(30.000000, 30.000000)">
                    <path d="M66.2513612,18.154997 C66.1696915,18.0760024 66.0607985,18.0365051 65.9519056,18.0365051 L57.4174229,18.0365051 L57.4174229,2.02692998 C57.4174229,1.92160383 57.376588,1.81627768 57.2949183,1.73728306 L56.6551724,1.11849192 C56.5735027,1.03949731 56.4646098,1 56.3557169,1 L53.061706,1 C52.9528131,1 52.8439201,1.03949731 52.7622505,1.11849192 L52.1225045,1.73728306 C52.0408348,1.81627768 52,1.92160383 52,2.02692998 L52,21.97307 C52,22.0783962 52.0408348,22.1837223 52.1225045,22.2627169 L52.7622505,22.8815081 C52.8439201,22.9605027 52.9528131,23 53.061706,23 L65.938294,23 C66.0471869,23 66.1560799,22.9605027 66.2377495,22.8815081 L66.8774955,22.2627169 C66.9591652,22.1837223 67,22.0783962 67,21.97307 L67,19.0634351 C67,18.9581089 66.9591652,18.8527828 66.8774955,18.7737882 L66.2513612,18.154997 Z" id="Path"></path>
                    <path d="M105.23775,18.1578947 C105.15608,18.0789474 105.047187,18.0394737 104.938294,18.0394737 L101.1951,18.0394737 L101.1951,5.96052632 L104.938294,5.96052632 C105.047187,5.96052632 105.15608,5.92105263 105.23775,5.84210526 L105.877495,5.22368421 C105.959165,5.14473684 106,5.03947368 106,4.93421053 L106,2.02631579 C106,1.92105263 105.959165,1.81578947 105.877495,1.73684211 L105.23775,1.11842105 C105.15608,1.03947368 105.047187,1 104.938294,1 L92.061706,1 C91.9528131,1 91.8439201,1.03947368 91.7622505,1.11842105 L91.1225045,1.73684211 C91.0408348,1.81578947 91,1.92105263 91,2.02631579 L91,4.93421053 C91,5.03947368 91.0408348,5.14473684 91.1225045,5.22368421 L91.7622505,5.84210526 C91.8439201,5.92105263 91.9528131,5.96052632 92.061706,5.96052632 L95.8049002,5.96052632 L95.8049002,18.0394737 L92.061706,18.0394737 C91.9528131,18.0394737 91.8439201,18.0789474 91.7622505,18.1578947 L91.1225045,18.7763158 C91.0408348,18.8552632 91,18.9605263 91,19.0657895 L91,21.9736842 C91,22.0789474 91.0408348,22.1842105 91.1225045,22.2631579 L91.7622505,22.8815789 C91.8439201,22.9605263 91.9528131,23 92.061706,23 L104.938294,23 C105.047187,23 105.15608,22.9605263 105.23775,22.8815789 L105.877495,22.2631579 C105.959165,22.1842105 106,22.0789474 106,21.9736842 L106,19.0657895 C106,18.9605263 105.959165,18.8552632 105.877495,18.7763158 L105.23775,18.1578947 Z" id="Path"></path>
                    <path d="M19.2369478,1.11849192 C19.1566265,1.03949731 19.0495315,1 18.9424364,1 L15.7028112,1 C15.5957162,1 15.4886212,1.03949731 15.4082999,1.11849192 L14.7791165,1.73728306 C14.6987952,1.81627768 14.6586345,1.92160383 14.6586345,2.02692998 L14.6586345,8.8994614 L5.32797858,8.8994614 L5.32797858,2.02692998 C5.32797858,1.92160383 5.28781794,1.81627768 5.20749665,1.73728306 L4.57831325,1.11849192 C4.49799197,1.03949731 4.39089692,1 4.28380187,1 L1.04417671,1 C0.93708166,1 0.829986613,1.03949731 0.749665328,1.11849192 L0.120481928,1.73728306 C0.0401606426,1.81627768 0,1.92160383 0,2.02692998 L0,21.97307 C0,22.0783962 0.0401606426,22.1837223 0.120481928,22.2627169 L0.749665328,22.8815081 C0.829986613,22.9605027 0.93708166,23 1.04417671,23 L4.29718876,23 C4.4042838,23 4.51137885,22.9605027 4.59170013,22.8815081 L5.22088353,22.2627169 C5.30120482,22.1837223 5.34136546,22.0783962 5.34136546,21.97307 L5.34136546,13.8497905 L14.6720214,13.8497905 L14.6720214,21.97307 C14.6720214,22.0783962 14.7121821,22.1837223 14.7925033,22.2627169 L15.4216867,22.8815081 C15.502008,22.9605027 15.6091031,23 15.7161981,23 L18.9558233,23 C19.0629183,23 19.1700134,22.9605027 19.2503347,22.8815081 L19.8795181,22.2627169 C19.9598394,22.1837223 20,22.0783962 20,21.97307 L20,2.02692998 C20,1.92160383 19.9598394,1.81627768 19.8795181,1.73728306 L19.2369478,1.11849192 Z" id="Path"></path>
                    <path d="M86.2478173,1.11856287 C86.1672263,1.03952096 86.0597717,1 85.952317,1 L82.7018133,1 C82.5943586,1 82.486904,1.03952096 82.406313,1.11856287 L81.7884486,1.7245509 C81.7078576,1.80359281 81.6675621,1.90898204 81.6675621,2.01437126 L81.6406985,5.09700599 L77.2081934,16.6502994 L76.8186702,16.6502994 L72.3458697,4.93892216 L72.3458697,2.02754491 C72.3458697,1.92215569 72.3055742,1.81676647 72.2249832,1.73772455 L71.593687,1.11856287 C71.513096,1.03952096 71.4056414,1 71.2981867,1 L68.047683,1 C67.9402283,1 67.8327737,1.03952096 67.7521827,1.11856287 L67.1208865,1.73772455 C67.0402955,1.81676647 67,1.92215569 67,2.02754491 L67,5.79520958 C67,5.82155689 67,5.84790419 67.0134318,5.8742515 L67.0671592,6.1245509 C67.080591,6.1508982 67.080591,6.17724551 67.0940228,6.20359281 L73.7024849,22.4071856 C73.7293486,22.4730539 73.7830759,22.5389222 73.8502351,22.5784431 L74.4278039,22.9341317 C74.4949631,22.9736527 74.5755541,23 74.6561451,23 L79.3707186,23 C79.4513096,23 79.5319006,22.9736527 79.5990598,22.9341317 L80.1631968,22.5784431 C80.2303559,22.5389222 80.2840833,22.4730539 80.3243788,22.4071856 L86.9059772,6.20359281 C86.919409,6.17724551 86.9328408,6.1508982 86.9328408,6.1245509 L86.9865682,5.8742515 C86.9865682,5.84790419 87,5.82155689 87,5.79520958 L87,2.02754491 C87,1.92215569 86.9597045,1.81676647 86.8791135,1.73772455 L86.2478173,1.11856287 Z" id="Path"></path>
                    <path d="M39.6398587,6.78819444 L41.8478387,10.6481481 L41.0855599,15.0405093 L37.7078762,17.9021991 L33.3050588,17.9021991 L29.927375,15.0405093 L29.1650962,10.6481481 L31.3730762,6.78819444 L35.5130388,5.25752315 L39.6398587,6.78819444 Z M24.0394282,10.6481481 L25.1171328,16.8107639 C25.2222747,17.4230324 25.5377004,17.96875 26.010839,18.3680556 L30.7422248,22.3877315 C31.2153634,22.787037 31.8067866,23 32.4113526,23 L38.5884396,23 C39.2061483,23 39.7975716,22.787037 40.2575674,22.3877315 L44.9889532,18.3680556 C45.4620918,17.96875 45.7775175,17.4230324 45.8826594,16.8107639 L46.960364,10.6481481 C47.0655059,10.0358796 46.960364,9.41030093 46.658081,8.87789352 L43.5695375,3.46064815 C43.2672545,2.92824074 42.7809732,2.515625 42.2026927,2.30266204 L36.3936023,0.159722222 C35.8153218,-0.0532407407 35.1844704,-0.0532407407 34.6193326,0.159722222 L28.8102423,2.30266204 C28.2319618,2.515625 27.7588232,2.92824074 27.4433975,3.46064815 L24.3548539,8.87789352 C24.0394282,9.41030093 23.9342863,10.0358796 24.0394282,10.6481481 Z" id="Shape"></path>
                </g>
            </g>
        </g>
    </g>
</svg>